<?xml version="1.0" standalone="no"?>
<!DOCTYPE svg PUBLIC "-//W3C//DTD SVG 20010904//EN"
 "http://www.w3.org/TR/2001/REC-SVG-20010904/DTD/svg10.dtd">
<svg version="1.0" xmlns="http://www.w3.org/2000/svg"
 width="619.000000pt" height="619.000000pt" viewBox="0 0 619.000000 619.000000"
 preserveAspectRatio="xMidYMid meet">
<metadata>
Created by potrace 1.14, written by Peter Selinger 2001-2017
</metadata>
<g transform="translate(0.000000,619.000000) scale(0.100000,-0.100000)"
fill="#000000" stroke="none">
<path d="M3059 5385 c-16 -16 -27 -35 -25 -42 3 -7 1 -15 -3 -17 -5 -3 -6 -18
-3 -32 4 -21 2 -25 -9 -19 -11 7 -12 6 -3 -6 14 -17 14 -170 0 -162 -5 4 -6 1
0 -8 11 -18 12 -41 1 -56 -4 -6 -3 -14 4 -18 8 -6 7 -10 -2 -16 -11 -7 -11 -9
-1 -9 9 0 10 -5 2 -19 -7 -14 -6 -21 3 -24 9 -3 9 -7 -2 -20 -9 -11 -10 -17
-2 -17 15 0 14 -27 -1 -33 -10 -4 -10 -6 0 -6 6 -1 12 -6 12 -12 0 -5 -6 -7
-12 -3 -10 6 -10 5 -1 -7 6 -8 12 -52 12 -104 0 -49 2 -97 4 -105 8 -32 31
-70 43 -70 6 0 14 -7 18 -15 3 -9 12 -12 22 -8 10 4 15 2 11 -3 -3 -5 3 -10
13 -10 10 0 17 3 14 7 -5 9 25 21 36 14 5 -3 12 0 16 6 4 8 3 9 -4 5 -22 -13
-12 11 11 28 12 9 15 14 7 10 -13 -7 -13 -6 -1 9 8 10 11 20 8 24 -4 3 1 12
11 20 9 8 12 12 5 9 -7 -4 -11 10 -11 44 -1 32 3 50 11 50 9 0 9 2 0 8 -9 5
-12 41 -11 117 1 161 -5 265 -15 272 -5 3 -4 9 2 13 9 5 9 14 1 34 -6 17 -6
25 0 21 6 -4 7 2 1 17 -4 13 -5 35 0 51 5 16 4 25 -2 22 -5 -4 -9 5 -9 19 0
14 -4 26 -10 26 -5 0 -10 7 -10 16 0 8 -4 12 -10 9 -5 -3 -10 -1 -10 5 0 6 -4
8 -10 5 -5 -3 -10 -2 -10 3 0 22 -63 6 -91 -23z"/>
<path d="M1317 4732 c-4 -6 -14 -9 -22 -6 -9 4 -19 -4 -26 -20 -7 -14 -16 -23
-22 -19 -6 3 -7 1 -3 -5 4 -7 4 -17 0 -24 -10 -15 -12 -58 -3 -52 10 6 20 -26
12 -39 -3 -7 -3 -9 2 -5 9 8 35 -15 35 -32 0 -6 4 -8 10 -5 5 3 15 -5 22 -19
6 -14 18 -26 26 -26 9 0 13 -3 9 -6 -3 -3 12 -23 33 -44 21 -21 36 -41 33 -44
-4 -3 2 -6 12 -6 10 0 16 -3 12 -6 -3 -3 5 -16 19 -29 13 -12 24 -28 24 -34 0
-7 5 -9 10 -6 6 3 10 0 10 -7 0 -7 14 -24 30 -38 17 -14 30 -34 30 -45 0 -14
3 -16 8 -7 6 9 12 5 20 -13 7 -14 17 -23 22 -20 6 3 10 0 10 -7 0 -16 88 -94
101 -90 5 1 12 -4 15 -11 7 -18 75 -14 107 8 15 9 25 21 22 25 -3 5 -1 12 5
15 7 4 8 11 1 18 -11 14 -11 16 -11 57 0 21 -5 30 -16 30 -8 0 -13 4 -10 8 3
5 -14 29 -38 55 -24 25 -41 48 -38 51 3 3 -2 6 -11 6 -16 0 -43 37 -39 53 1 4
-1 6 -6 5 -4 -2 -47 36 -95 85 -48 48 -84 87 -80 87 5 0 -4 8 -20 18 -15 10
-24 22 -20 25 3 4 -1 7 -10 7 -9 0 -17 6 -17 13 0 7 -11 21 -25 31 -13 10 -22
23 -18 29 3 6 1 7 -5 3 -7 -4 -12 -2 -12 4 0 6 -4 9 -9 6 -5 -3 -12 1 -15 10
-3 8 -10 12 -16 9 -5 -3 -10 -1 -10 6 0 9 -3 9 -14 0 -11 -9 -15 -9 -18 1 -3
9 -6 9 -11 0z"/>
<path d="M4871 4694 c-1 -6 -13 -17 -28 -25 -16 -8 -34 -22 -41 -32 -7 -9 -18
-15 -23 -12 -5 3 -6 -2 -2 -11 3 -10 2 -15 -3 -13 -5 2 -34 -22 -65 -53 -31
-32 -55 -58 -53 -58 2 0 -29 -33 -69 -72 -40 -40 -71 -76 -69 -80 1 -5 -3 -8
-9 -8 -14 0 -40 -26 -33 -33 3 -3 -4 -8 -15 -12 -11 -3 -23 -15 -26 -26 -4
-10 -11 -17 -16 -14 -5 4 -9 -1 -9 -10 0 -11 -5 -15 -16 -11 -8 3 -13 2 -9 -3
7 -13 -5 -42 -16 -35 -5 3 -9 -2 -9 -10 0 -9 -5 -16 -10 -16 -6 0 -9 -3 -8 -7
1 -5 -4 -19 -11 -32 -8 -15 -9 -21 -2 -16 8 4 11 -1 8 -17 -4 -33 50 -83 91
-84 18 0 32 4 32 9 0 4 5 5 10 2 6 -3 10 -1 10 4 0 6 3 10 8 9 4 -1 23 12 42
30 19 18 38 32 43 32 4 0 5 5 1 12 -5 8 -2 9 10 5 10 -4 15 -3 11 3 -3 6 -1
10 6 10 7 0 9 3 6 7 -4 3 6 16 22 27 15 12 30 26 32 31 2 6 7 9 12 7 4 -1 7 5
7 13 0 8 7 15 16 15 8 0 12 5 9 10 -3 6 1 10 9 10 9 0 16 4 16 10 0 15 33 50
42 44 4 -3 8 0 8 6 0 6 40 51 89 100 48 50 86 90 83 90 -3 0 6 10 20 23 14 13
24 31 22 40 -1 9 3 17 9 17 8 0 8 3 -1 12 -8 8 -8 17 -1 30 7 14 6 20 -6 24
-8 3 -13 10 -10 14 3 5 -4 11 -15 15 -11 3 -20 10 -20 15 0 5 -7 7 -16 3 -9
-3 -20 0 -25 8 -8 12 -10 12 -18 0 -7 -11 -9 -11 -14 0 -3 8 -6 9 -6 3z"/>
<path d="M2701 4235 c-1 -6 -13 -12 -28 -14 -16 -1 -35 -4 -43 -5 -30 -4 -120
-51 -120 -63 0 -7 -3 -12 -7 -12 -20 3 -34 -2 -28 -11 3 -5 -1 -10 -9 -10 -9
0 -16 -4 -16 -9 0 -4 -11 -19 -24 -33 -12 -14 -33 -42 -45 -62 -13 -20 -26
-34 -31 -31 -4 3 -6 -4 -3 -15 3 -11 0 -20 -6 -20 -5 0 -8 -7 -5 -15 4 -8 1
-15 -4 -15 -6 0 -9 -9 -7 -20 2 -12 -2 -20 -11 -21 -23 -2 -28 -4 -43 -13 -10
-7 -12 -5 -6 5 6 11 5 12 -6 2 -7 -7 -22 -13 -34 -13 -12 0 -26 -5 -33 -12 -7
-7 -12 -8 -12 -3 0 4 -8 0 -19 -9 -10 -9 -28 -18 -39 -19 -11 0 -19 -4 -18 -7
4 -8 -32 -39 -38 -33 -6 6 -96 -86 -96 -97 0 -4 -9 -17 -20 -30 -11 -12 -17
-26 -15 -31 3 -4 1 -10 -5 -14 -6 -4 -8 -11 -5 -16 4 -5 1 -9 -5 -9 -6 0 -8
-4 -5 -10 3 -5 1 -10 -5 -10 -6 0 -8 -5 -5 -10 4 -6 1 -18 -7 -27 -9 -12 -9
-15 0 -9 6 4 12 3 12 -3 0 -5 -4 -12 -8 -15 -11 -7 -12 -136 -1 -136 5 0 9 -5
9 -11 0 -5 -5 -7 -11 -4 -6 4 -5 -1 2 -13 7 -10 9 -27 5 -37 -5 -15 -9 -15
-23 -4 -12 10 -15 10 -9 1 4 -7 0 -20 -10 -30 -10 -9 -18 -15 -19 -12 -1 3 -9
-2 -18 -11 -9 -9 -13 -19 -10 -23 4 -3 -1 -6 -11 -6 -9 0 -15 -4 -11 -9 3 -5
-9 -24 -27 -42 -18 -17 -26 -28 -18 -23 10 5 9 1 -3 -13 -10 -12 -19 -27 -21
-35 -1 -7 -5 -19 -9 -25 -5 -7 -5 -17 -2 -23 3 -5 2 -10 -3 -10 -5 0 -9 -6
-10 -12 0 -7 -3 -29 -7 -48 -4 -19 -7 -46 -8 -60 0 -14 -5 -28 -11 -32 -8 -5
-8 -8 0 -8 7 0 12 -19 13 -42 3 -62 4 -68 10 -68 3 0 7 -14 8 -31 1 -17 7 -37
13 -44 5 -6 7 -15 3 -18 -3 -4 -1 -7 5 -7 6 0 9 -7 5 -17 -4 -11 -3 -14 5 -9
7 4 12 1 12 -9 0 -9 6 -23 13 -30 29 -34 37 -45 31 -45 -4 0 4 -9 17 -21 13
-12 23 -25 21 -30 -1 -5 4 -8 10 -7 7 2 12 -3 10 -10 -1 -8 2 -11 8 -7 5 3 10
2 10 -4 0 -5 8 -12 18 -15 13 -5 19 -16 19 -41 0 -22 -4 -32 -11 -28 -8 5 -8
3 0 -8 9 -12 13 -34 17 -86 0 -7 4 -13 9 -13 5 0 7 -4 3 -9 -3 -5 0 -13 6 -16
5 -4 8 -13 5 -21 -3 -8 -1 -14 5 -14 6 0 8 -4 5 -9 -3 -5 1 -11 9 -15 8 -3 15
-12 15 -19 0 -8 11 -26 25 -41 14 -15 23 -32 20 -37 -6 -8 9 -13 28 -10 5 1 6
-3 2 -9 -3 -5 1 -13 9 -16 9 -3 13 -10 10 -15 -3 -5 3 -6 12 -2 14 5 16 3 10
-12 -4 -11 -4 -16 0 -13 7 8 94 -39 106 -57 4 -5 8 -7 8 -2 0 4 13 1 29 -7 16
-9 31 -12 35 -9 3 4 6 1 6 -5 0 -6 7 -9 15 -6 19 8 49 -22 41 -41 -3 -8 0 -15
6 -15 6 0 8 -3 5 -7 -4 -3 1 -15 10 -26 10 -11 12 -17 6 -13 -7 4 -13 2 -13
-3 0 -6 6 -11 14 -11 8 0 17 -8 21 -19 3 -10 14 -29 25 -41 11 -12 17 -27 13
-33 -3 -6 -1 -7 5 -3 8 4 12 0 12 -11 0 -15 2 -16 10 -3 8 13 10 12 10 -2 0
-10 5 -18 10 -18 6 0 10 -7 10 -15 0 -8 7 -15 15 -15 8 0 19 -9 25 -20 6 -11
17 -20 25 -20 8 0 15 -7 15 -16 0 -8 5 -12 10 -9 6 3 10 1 10 -5 0 -6 4 -9 9
-6 5 3 11 -1 15 -9 3 -8 14 -15 25 -15 11 0 24 -6 28 -13 4 -7 17 -13 28 -13
11 0 19 -5 18 -11 -2 -7 7 -10 22 -7 13 2 27 -1 30 -6 5 -8 11 -7 21 1 10 8
14 8 14 0 0 -13 22 -10 32 4 5 6 8 6 8 -2 0 -9 9 -8 34 2 18 8 36 11 39 8 4
-3 12 -1 19 4 7 6 21 9 31 8 9 -2 15 0 12 5 -3 4 9 13 25 20 17 7 30 17 30 22
0 5 3 7 8 5 4 -2 15 4 25 15 9 10 14 18 10 18 -5 0 1 7 12 16 11 8 20 20 20
27 1 7 7 11 14 9 7 -1 10 2 6 8 -3 6 1 17 9 26 9 8 16 21 16 29 0 7 6 15 14
18 9 4 12 14 9 26 -3 12 -1 21 4 21 5 0 10 12 11 28 1 15 6 28 11 30 4 1 7 16
5 32 -3 24 0 28 14 24 12 -4 13 -3 4 3 -14 11 -14 71 1 91 6 8 5 12 -3 12 -10
0 -10 3 0 15 10 12 10 15 0 15 -10 0 -10 3 0 15 10 12 10 15 -1 15 -9 0 -10 3
-4 8 12 8 13 32 2 49 -4 6 -3 14 2 17 10 7 9 25 -2 43 -4 6 -3 14 1 17 12 7 9
167 -2 185 -6 9 -5 12 2 7 7 -4 10 1 9 14 -1 11 -5 20 -10 20 -4 0 -5 6 0 13
11 18 12 36 2 43 -6 4 -6 11 1 19 7 8 9 18 7 23 -3 4 -2 14 3 22 5 9 5 19 -2
27 -6 8 -6 13 -1 13 11 0 11 36 0 46 -4 4 1 13 11 20 9 7 12 14 7 14 -6 0 -11
11 -11 24 0 14 4 22 8 20 5 -3 5 -11 1 -17 -4 -7 0 -6 10 2 16 13 22 8 18 -13
-1 -5 4 -4 13 3 10 8 16 9 21 1 3 -6 13 -7 23 -2 31 14 57 8 58 -13 0 -11 -3
-27 -7 -36 -5 -9 -3 -21 3 -27 9 -9 9 -12 0 -12 -9 0 -10 -6 -5 -17 8 -16 9
-40 3 -53 -3 -6 -9 -169 -13 -332 -1 -60 1 -108 5 -108 4 0 5 -9 3 -20 -4 -18
6 -25 29 -21 5 1 6 -5 3 -13 -4 -10 0 -14 13 -11 14 3 17 -1 13 -12 -5 -12 -2
-13 13 -6 10 5 30 8 43 7 16 -1 25 5 29 18 4 15 7 17 13 6 7 -10 9 -9 9 5 0
10 4 15 10 12 5 -3 7 0 4 8 -3 8 0 18 5 22 6 3 8 11 5 17 -4 6 0 14 7 19 8 5
9 9 4 9 -6 0 -10 12 -9 28 1 15 3 33 3 40 1 8 6 10 14 6 9 -6 9 -5 0 7 -15 18
-14 79 1 98 8 11 8 13 0 8 -15 -9 -14 65 1 75 6 5 5 8 -2 8 -9 0 -10 7 -3 25
7 17 6 25 -1 25 -8 0 -7 5 1 15 7 8 8 15 3 15 -5 0 -9 10 -7 23 1 12 3 22 4
22 1 0 4 34 6 75 6 102 6 102 20 96 8 -3 16 -1 19 5 4 5 11 7 16 4 5 -4 9 -2
9 2 0 5 16 15 35 22 19 7 35 17 35 22 0 5 7 9 15 9 8 0 15 7 15 17 0 9 3 14 6
10 7 -7 44 29 44 44 0 5 5 7 10 4 6 -3 10 -1 10 5 0 17 26 40 36 32 5 -4 3 0
-4 9 -10 14 -10 18 3 23 9 3 14 10 11 15 -4 5 -2 11 3 13 5 1 11 10 13 18 2 8
10 21 18 28 10 9 10 11 1 6 -10 -5 -11 -1 -5 17 8 22 9 100 2 159 -2 14 -10
33 -18 43 -8 10 -15 21 -15 26 0 4 -8 15 -18 25 -9 10 -15 21 -12 26 3 4 -6
11 -20 14 -14 4 -24 10 -22 14 1 4 -2 8 -7 9 -5 0 -13 8 -18 17 -5 9 -16 16
-24 16 -8 0 -13 3 -11 8 3 4 -9 8 -26 9 -17 1 -33 6 -36 10 -9 12 -31 14 -31
3 0 -7 -6 -7 -20 0 -11 6 -20 7 -20 3 0 -4 -12 -9 -26 -10 -15 0 -30 -7 -35
-15 -7 -11 -9 -11 -9 1 0 9 -6 7 -19 -8 -14 -16 -21 -18 -24 -9 -4 8 -6 7 -6
-4 -1 -10 -10 -22 -21 -28 -11 -6 -20 -17 -20 -25 0 -8 -4 -15 -10 -15 -5 0
-10 -7 -10 -16 0 -9 -5 -12 -12 -8 -7 5 -9 2 -5 -8 3 -9 3 -19 -1 -22 -9 -10
-9 -76 1 -76 4 0 5 -6 0 -12 -4 -7 -7 -29 -8 -48 0 -19 -4 -41 -9 -49 -6 -10
-6 -12 2 -7 8 5 12 -1 12 -14 0 -12 -4 -18 -10 -15 -6 4 -6 -4 0 -21 8 -20 8
-29 -1 -34 -8 -6 -7 -9 2 -12 11 -4 10 -8 -3 -21 -11 -11 -19 -13 -23 -7 -5 8
-11 8 -20 0 -9 -7 -15 -8 -20 -1 -4 7 -15 5 -31 -5 -13 -9 -24 -13 -24 -10 0
4 -9 2 -20 -4 -21 -11 -25 -4 -11 20 6 8 7 19 3 25 -11 16 -9 129 3 137 6 5 6
8 -1 8 -8 0 -10 13 -6 38 3 20 6 56 6 80 0 23 5 42 11 42 5 0 3 5 -5 10 -11 7
-11 10 -2 10 9 0 10 5 2 19 -7 14 -6 21 3 24 9 3 9 7 -2 20 -7 10 -9 17 -4 17
5 0 7 20 6 45 -2 28 1 44 7 40 6 -3 10 -1 10 4 0 6 -4 11 -9 11 -5 0 -8 31 -7
70 0 38 5 70 10 70 5 0 3 6 -3 14 -9 11 -9 15 1 19 11 4 11 6 0 6 -10 1 -10 6
-2 21 8 14 8 20 0 20 -8 0 -8 6 0 20 8 15 8 20 -1 20 -7 0 -8 4 -2 13 11 14
11 27 0 45 -5 6 -4 12 0 12 5 0 8 34 8 75 0 44 4 75 10 75 5 0 4 4 -4 9 -7 5
-10 14 -6 20 5 8 11 9 19 2 7 -6 16 -8 19 -4 4 3 7 1 7 -5 0 -7 5 -12 11 -12
5 0 7 5 3 11 -3 6 6 3 22 -7 15 -11 25 -13 21 -7 -6 9 -3 11 7 7 9 -3 16 -11
16 -18 0 -6 5 -4 10 4 7 12 10 12 10 1 0 -7 6 -11 14 -8 8 3 19 0 25 -7 6 -7
24 -11 41 -10 16 1 33 -2 36 -7 3 -5 10 -7 15 -4 5 4 9 2 9 -3 0 -6 9 -8 20
-5 12 3 20 0 20 -6 0 -7 6 -11 13 -9 6 1 23 -4 36 -11 13 -7 21 -8 17 -3 -4 6
15 -1 41 -16 27 -14 50 -30 51 -34 2 -4 8 -6 13 -2 5 3 9 -2 9 -10 0 -8 5 -18
12 -22 7 -5 9 -2 4 7 -4 8 -1 6 6 -4 7 -10 28 -34 46 -54 17 -19 32 -40 32
-45 0 -5 5 -6 10 -3 6 3 10 0 10 -8 0 -8 7 -18 16 -21 9 -4 14 -9 11 -12 -3
-3 6 -17 20 -30 14 -13 23 -24 18 -24 -4 0 1 -8 12 -17 10 -10 12 -14 3 -8
-16 10 16 -34 35 -47 6 -4 6 -8 1 -8 -5 0 -3 -7 4 -15 7 -8 9 -15 4 -15 -5 0
-4 -4 3 -8 6 -4 13 -16 15 -27 1 -11 11 -29 21 -39 9 -11 17 -30 17 -43 0 -13
5 -23 10 -23 6 0 10 -13 10 -30 0 -16 5 -30 10 -30 6 0 10 -9 10 -19 0 -11 6
-22 13 -24 9 -4 9 -6 0 -6 -9 -1 -9 -9 1 -33 8 -18 12 -41 11 -51 -2 -9 0 -15
5 -12 4 3 11 -2 14 -11 4 -10 2 -13 -7 -8 -8 5 -7 2 2 -9 8 -10 11 -20 8 -23
-3 -3 1 -17 9 -32 8 -16 10 -28 4 -30 -6 -2 -7 -9 -3 -15 11 -17 10 -41 -2
-49 -6 -5 -5 -8 2 -8 9 0 10 -7 5 -22 -4 -13 -7 -36 -6 -51 0 -15 -3 -30 -8
-33 -5 -3 -3 -12 3 -21 9 -10 10 -16 2 -21 -7 -4 -11 -14 -11 -22 2 -38 -3
-71 -10 -66 -4 3 -7 -8 -6 -25 1 -16 -2 -29 -7 -29 -4 0 -6 -7 -3 -15 4 -8 1
-15 -6 -15 -6 0 -9 -3 -7 -7 3 -5 0 -19 -6 -33 -5 -14 -9 -36 -8 -50 2 -20 0
-22 -8 -10 -10 13 -11 13 -12 0 -2 -31 -8 -47 -42 -102 -19 -32 -37 -55 -41
-51 -3 3 -6 -3 -6 -14 0 -12 -7 -23 -15 -27 -8 -3 -15 -11 -15 -18 0 -7 -12
-27 -27 -43 -16 -16 -27 -33 -25 -37 1 -5 -2 -8 -8 -8 -15 0 -50 -42 -43 -53
3 -6 1 -7 -5 -3 -7 4 -12 2 -12 -4 0 -6 -4 -8 -10 -5 -5 3 -10 -1 -10 -9 0 -9
-4 -16 -10 -16 -5 0 -10 -7 -10 -16 0 -8 -4 -13 -9 -10 -5 3 -15 -2 -22 -11
-12 -14 -12 -16 1 -9 8 4 4 -2 -9 -13 -13 -12 -20 -21 -17 -21 4 0 1 -6 -6
-14 -7 -8 -17 -11 -22 -8 -5 3 -6 0 -3 -5 4 -6 -4 -22 -18 -37 -13 -14 -21
-26 -18 -26 4 0 -2 -7 -13 -15 -10 -8 -15 -15 -11 -15 4 0 2 -6 -5 -14 -7 -8
-16 -12 -20 -9 -4 2 -5 -3 -2 -11 3 -9 1 -16 -6 -16 -6 0 -8 -5 -4 -12 5 -7 2
-9 -7 -6 -10 4 -15 -1 -16 -13 -1 -11 -11 -31 -22 -45 -12 -15 -19 -30 -16
-34 3 -4 -6 -19 -20 -34 -13 -14 -19 -26 -13 -26 7 0 3 -7 -8 -16 -10 -8 -12
-12 -4 -8 13 7 13 5 2 -9 -8 -9 -10 -22 -6 -28 4 -8 3 -9 -4 -5 -11 7 -16 -12
-15 -51 1 -7 -3 -10 -8 -7 -6 3 -8 -6 -5 -19 4 -23 -7 -36 -34 -41 -3 -1 -11
-5 -19 -10 -10 -7 -12 -6 -6 3 5 9 -1 8 -16 -2 -13 -9 -41 -19 -61 -22 -21 -4
-38 -11 -38 -16 0 -5 -7 -6 -15 -3 -8 4 -15 1 -15 -5 0 -6 -7 -8 -15 -5 -8 4
-15 1 -15 -5 0 -6 -6 -8 -14 -5 -8 3 -17 0 -21 -5 -3 -6 -11 -9 -16 -5 -5 3
-16 0 -24 -6 -8 -6 -29 -14 -47 -17 -18 -3 -35 -8 -38 -13 -3 -4 -17 -6 -32
-6 -14 1 -24 -2 -22 -6 3 -4 -11 -10 -31 -14 -19 -3 -35 -10 -35 -15 0 -4 -9
-6 -20 -4 -11 2 -20 0 -20 -5 0 -5 -9 -7 -20 -5 -11 2 -20 0 -20 -6 0 -5 -9
-9 -20 -9 -11 0 -20 -4 -20 -10 0 -5 -7 -7 -15 -4 -8 4 -15 1 -15 -6 0 -6 -4
-9 -8 -6 -12 7 -72 -50 -72 -69 0 -9 -4 -14 -8 -11 -5 3 -9 -1 -9 -9 0 -8 5
-15 11 -15 6 0 4 -5 -4 -10 -10 -6 -11 -10 -2 -10 6 0 12 -9 12 -20 0 -11 5
-20 11 -20 5 0 7 -4 4 -10 -3 -6 1 -7 9 -4 9 3 16 1 16 -6 0 -6 5 -8 10 -5 6
3 10 2 10 -3 0 -11 40 -10 58 1 7 5 12 3 12 -3 0 -6 5 -8 13 -3 12 8 32 13 55
15 6 1 12 5 12 9 0 3 14 9 30 13 17 3 44 9 60 12 17 4 30 10 30 14 0 5 8 7 18
5 9 -1 22 2 29 7 7 5 18 6 24 2 8 -4 9 -3 5 4 -6 11 28 18 57 13 5 -1 6 3 2 9
-3 6 4 10 18 10 13 0 27 3 31 7 6 7 24 11 59 15 9 1 17 6 17 11 0 5 7 7 15 3
8 -3 15 -1 15 5 0 6 7 9 15 6 8 -4 17 -2 20 4 4 5 11 7 16 4 5 -4 9 -1 9 6 0
7 3 10 6 7 3 -4 21 0 40 8 19 8 34 11 34 8 0 -4 6 -1 14 5 8 6 18 11 22 9 5
-1 19 3 32 10 12 7 22 9 22 5 0 -4 5 0 11 10 6 9 14 15 19 12 11 -7 41 35 34
47 -3 4 -1 8 5 8 5 0 8 9 6 20 -2 11 2 20 8 20 8 0 8 3 2 8 -13 9 -15 42 -3
42 6 0 8 7 4 15 -3 8 -1 15 4 15 6 0 9 3 8 8 -3 15 15 62 24 62 6 0 8 7 4 15
-3 8 -1 15 4 15 6 0 10 9 10 21 0 13 4 18 12 13 7 -5 9 -2 6 7 -6 16 16 42 26
31 4 -3 4 1 0 11 -3 10 -1 17 5 17 6 0 10 6 9 13 -2 6 3 11 10 9 6 -1 11 1 11
5 -4 22 2 33 13 27 8 -5 9 -2 5 9 -4 11 -1 17 9 17 8 0 12 5 9 10 -3 6 -2 10
3 10 5 0 15 11 22 25 7 13 17 22 22 19 5 -3 8 -2 7 3 -3 20 2 34 11 28 6 -3
10 1 10 10 0 8 7 18 15 21 8 4 15 10 15 15 0 5 8 17 18 27 9 10 23 28 31 40 8
11 18 19 23 16 4 -3 8 2 8 10 0 8 9 17 20 21 11 3 19 12 17 18 -1 7 4 11 11 9
6 -1 11 1 11 5 -3 20 2 34 11 28 6 -3 10 4 11 17 0 13 3 17 6 9 4 -9 10 -3 19
18 8 18 18 30 24 26 5 -3 7 0 5 7 -3 8 3 23 14 35 11 11 17 24 14 27 -4 3 -1
6 6 6 7 0 9 5 6 10 -3 6 0 13 9 16 8 3 18 19 21 35 4 16 11 29 16 29 6 0 7 -6
3 -12 -4 -7 -3 -10 1 -6 5 5 10 20 11 34 2 14 11 35 20 45 13 15 14 19 3 19
-11 0 -12 2 -1 9 8 4 13 11 13 15 -3 19 0 27 7 22 4 -2 9 12 10 32 2 20 6 39
10 42 4 3 9 16 11 30 1 14 8 28 15 32 8 6 7 8 -2 8 -8 0 -10 5 -5 13 4 6 9 23
11 37 2 13 8 31 15 38 8 10 7 16 -2 22 -9 5 -10 9 -2 14 6 4 9 12 5 17 -3 5 0
17 8 26 9 12 9 15 1 9 -9 -5 -11 0 -7 21 3 15 6 53 7 83 2 30 6 61 11 68 4 7
3 18 -2 25 -13 17 -24 79 -12 72 5 -3 3 7 -4 22 -15 29 -35 94 -40 125 -1 10
-5 21 -9 24 -4 4 -1 14 6 22 9 12 9 14 0 9 -8 -5 -16 7 -25 35 -6 24 -17 46
-23 50 -6 5 -4 8 5 8 12 0 12 2 2 9 -7 4 -14 17 -15 29 0 11 -5 18 -9 16 -4
-3 -8 -2 -9 3 -3 29 -10 47 -26 66 -10 11 -12 17 -5 13 6 -4 12 -2 12 3 0 6
-5 11 -11 11 -9 0 -36 60 -30 69 1 2 -1 7 -6 10 -4 3 -15 15 -23 25 -12 16
-12 18 -1 11 10 -5 12 -4 7 3 -4 7 -15 12 -24 13 -10 0 -12 3 -5 6 8 3 3 13
-14 29 -14 13 -23 24 -19 24 4 0 -5 12 -19 26 -14 14 -23 30 -20 35 4 5 -1 9
-10 9 -9 0 -13 5 -10 10 3 6 1 10 -5 10 -6 0 -18 7 -26 15 -9 8 -12 15 -8 15
4 0 -6 11 -22 25 -16 14 -24 25 -19 26 6 0 0 4 -12 9 -13 5 -23 16 -23 24 0 8
-9 18 -20 21 -11 3 -20 13 -20 21 0 8 -3 14 -7 13 -15 -2 -53 13 -53 22 0 4
-16 13 -34 20 -19 7 -33 16 -31 19 3 4 -3 7 -13 7 -33 0 -43 3 -38 12 3 4 -6
7 -19 5 -14 -1 -25 2 -25 7 0 4 -7 5 -17 2 -12 -5 -14 -3 -8 8 8 12 6 12 -8 0
-14 -11 -18 -11 -22 1 -3 8 -16 14 -28 13 -12 -1 -26 1 -32 5 -5 4 -23 10 -40
13 -16 3 -41 8 -55 12 -14 4 -34 8 -45 10 -11 2 -22 4 -25 5 -3 1 -8 2 -12 1
-5 0 -8 3 -8 8 0 5 -9 7 -20 4 -11 -3 -20 -1 -20 5 0 6 -12 9 -27 8 -16 -2
-31 2 -35 8 -5 8 -8 7 -8 -2 0 -7 -4 -11 -9 -7 -5 3 -12 1 -16 -5 -9 -15 -27
-12 -20 3 4 6 -1 3 -9 -7 -9 -11 -16 -15 -16 -10 0 6 -14 9 -31 6 -22 -3 -36
1 -50 17 -11 12 -24 19 -30 16 -5 -4 -9 -1 -9 5 0 7 -7 10 -15 7 -8 -4 -17 -2
-20 3 -3 5 -13 6 -22 3 -12 -5 -14 -3 -8 7 5 9 4 11 -4 6 -6 -4 -19 -2 -28 6
-10 8 -14 8 -10 1 10 -15 -36 -11 -56 6 -12 9 -16 9 -19 0 -3 -8 -9 -6 -21 5
-9 10 -17 13 -17 7 0 -6 -11 -7 -28 -1 -16 4 -36 4 -45 -2 -12 -6 -17 -5 -17
3 0 9 -3 9 -14 0 -11 -9 -15 -9 -19 1 -3 7 -6 8 -6 3z m952 -1073 c9 -10 19
-29 21 -43 2 -13 5 -24 6 -24 1 0 3 -8 5 -17 2 -10 -1 -18 -7 -18 -6 0 -8 -7
-4 -15 3 -8 -2 -19 -12 -24 -9 -5 -14 -12 -11 -16 10 -9 -54 -72 -69 -67 -14
5 -12 33 3 45 6 4 5 10 -3 16 -8 4 -14 12 -14 16 0 4 6 12 14 16 11 7 11 9 -1
9 -11 0 -11 3 0 17 11 13 11 17 1 21 -10 3 -10 7 -1 19 9 11 10 16 1 22 -6 4
-8 12 -2 20 4 8 6 20 3 28 -8 20 51 16 70 -5z"/>
<path d="M4343 4035 c0 -8 4 -12 8 -9 4 2 10 -2 12 -8 4 -8 6 -9 6 -2 1 6 -5
17 -12 23 -10 8 -14 7 -14 -4z"/>
<path d="M5644 2972 c3 -6 -29 -9 -84 -8 -50 0 -90 -2 -90 -5 0 -4 -15 -4 -33
1 -18 4 -43 3 -55 -1 -15 -6 -22 -5 -22 4 0 7 -3 8 -8 2 -4 -5 -47 -10 -97 -9
-49 0 -98 -3 -107 -8 -9 -4 -19 -4 -23 1 -3 6 -17 6 -35 1 -18 -5 -32 -5 -36
1 -3 6 -11 6 -17 1 -15 -10 -27 -10 -46 2 -9 6 -12 5 -8 -1 3 -5 -12 -9 -35
-10 -26 -1 -46 -7 -53 -17 -7 -9 -15 -13 -18 -9 -4 3 -9 -2 -13 -11 -3 -9 -14
-16 -23 -16 -13 0 -13 -2 -2 -9 9 -6 10 -10 2 -16 -9 -5 -9 -11 1 -23 11 -13
11 -14 -2 -7 -13 7 -13 6 -2 -7 10 -13 10 -17 0 -21 -8 -3 -6 -6 6 -6 11 -1
16 -6 13 -15 -3 -8 1 -17 9 -20 10 -4 13 -1 9 7 -4 6 -1 5 7 -4 7 -9 21 -15
30 -13 9 1 22 -3 27 -10 7 -8 28 -10 66 -6 31 3 58 2 61 -2 3 -5 10 -6 15 -2
6 3 94 7 197 8 103 1 193 5 200 9 7 5 12 3 12 -3 0 -8 6 -8 20 0 15 8 20 8 20
-1 0 -8 4 -8 15 1 10 8 15 9 15 1 0 -7 8 -8 25 -1 15 6 26 6 30 -1 4 -5 12 -6
18 -2 20 12 37 12 37 0 0 -8 3 -8 8 -2 9 13 74 16 66 3 -6 -9 2 -6 55 21 19
10 22 10 15 -1 -4 -7 4 -2 18 12 13 14 23 28 21 33 -2 4 1 7 7 7 6 0 8 5 5 10
-3 6 0 10 7 10 9 0 9 3 -2 10 -8 5 -10 10 -3 10 6 0 9 9 6 20 -3 11 -10 20
-15 20 -6 0 -5 7 2 15 11 13 10 14 -2 10 -10 -4 -24 4 -37 22 -17 20 -24 24
-30 14 -6 -8 -11 -9 -15 -3 -3 6 -20 9 -36 7 -16 -2 -32 1 -36 7 -4 7 -9 6
-15 -3 -7 -12 -12 -12 -30 -1 -11 8 -18 9 -15 4z"/>
<path d="M574 2949 c-2 -4 -20 -10 -39 -13 -20 -4 -33 -11 -30 -16 3 -5 -3
-18 -15 -30 -11 -11 -15 -20 -9 -20 8 0 9 -4 0 -13 -6 -8 -7 -17 -3 -21 4 -4
7 -13 7 -19 1 -7 6 -11 13 -10 6 2 9 -4 6 -11 -6 -15 29 -40 40 -29 3 3 6 1 6
-6 0 -7 4 -10 9 -6 5 3 12 1 15 -3 6 -10 48 -8 65 3 6 3 11 1 11 -6 0 -8 4 -8
15 1 8 7 15 8 15 3 0 -10 90 -11 107 0 6 4 14 3 17 -1 3 -5 79 -9 170 -8 90 1
162 -2 160 -5 -2 -3 14 -3 35 1 20 4 47 3 59 -1 12 -5 22 -5 22 -1 0 9 53 8
67 -1 6 -4 14 1 17 10 6 14 9 15 15 4 7 -11 11 -9 20 8 7 11 19 21 27 21 10 0
14 6 10 15 -3 10 1 15 12 15 15 0 15 2 2 10 -13 9 -13 10 0 10 13 0 13 2 1 9
-12 8 -12 12 -2 25 12 15 8 21 -12 17 -5 -1 -11 8 -14 19 -5 18 -10 21 -29 19
-3 0 -11 7 -18 17 -9 12 -15 14 -20 5 -4 -6 -12 -8 -18 -5 -6 4 -34 7 -62 8
-28 1 -57 5 -65 10 -9 6 -12 5 -7 -2 4 -7 -15 -10 -59 -9 -36 1 -65 5 -65 10
0 4 -6 5 -12 0 -18 -11 -68 -11 -68 0 0 5 -8 3 -17 -4 -14 -12 -15 -12 -9 -1
7 11 4 12 -11 3 -14 -7 -23 -7 -31 1 -9 9 -12 8 -12 -2 0 -13 -2 -13 -10 0 -8
13 -10 13 -10 1 0 -11 -3 -12 -12 -3 -8 8 -17 8 -31 1 -14 -8 -18 -8 -13 0 5
8 0 8 -18 1 -14 -5 -26 -6 -26 -2 0 10 -51 9 -68 -2 -7 -4 -12 -2 -12 5 0 8
-4 8 -15 -1 -8 -7 -15 -8 -15 -3 0 10 -80 12 -86 2z"/>
<path d="M4416 1653 c-13 -13 -16 -13 -10 -3 6 12 5 13 -8 3 -8 -7 -18 -11
-21 -8 -4 3 -5 2 -2 -2 2 -3 -7 -17 -21 -30 -14 -12 -20 -23 -14 -23 6 0 8 -5
5 -11 -9 -14 -14 -59 -6 -54 4 2 13 -5 20 -17 10 -16 10 -19 -1 -14 -7 4 -3
-1 10 -10 12 -9 22 -23 22 -31 0 -8 5 -11 10 -8 6 3 10 -1 10 -10 0 -9 5 -13
10 -10 6 3 10 1 10 -6 0 -6 11 -22 26 -35 14 -13 23 -24 20 -24 -3 0 17 -22
44 -48 28 -27 50 -54 50 -61 0 -7 5 -9 10 -6 6 3 10 3 10 -2 0 -4 18 -27 39
-50 22 -23 37 -44 34 -47 -4 -3 0 -6 8 -6 8 0 23 -14 34 -30 11 -16 26 -30 33
-30 6 0 12 -4 12 -9 0 -4 21 -30 46 -57 26 -27 43 -42 39 -34 -7 12 -5 12 11
-1 24 -20 91 -19 104 1 5 8 10 11 10 7 0 -5 7 -1 16 8 9 9 14 19 10 22 -3 4 2
15 11 26 11 12 12 17 4 12 -11 -6 -13 -2 -9 19 3 14 1 26 -4 26 -5 0 -6 5 -3
10 3 6 1 10 -4 10 -6 0 -11 7 -11 15 0 8 -4 15 -10 15 -5 0 -10 7 -10 15 0 8
-3 14 -7 13 -11 -3 -82 70 -75 77 3 3 0 5 -6 5 -6 0 -13 9 -17 20 -3 11 -9 19
-13 17 -10 -3 -61 51 -54 57 3 3 -2 6 -11 6 -9 0 -17 7 -17 16 0 8 -4 12 -10
9 -5 -3 -10 -1 -10 5 0 6 -11 21 -25 34 -13 13 -21 27 -17 31 4 5 2 5 -5 1
-12 -7 -40 31 -35 47 1 5 -2 5 -8 2 -11 -7 -70 50 -70 67 0 4 -5 8 -10 8 -6 0
-24 14 -40 30 -16 17 -34 30 -40 30 -5 0 -10 4 -10 9 0 5 -10 7 -22 3 -14 -3
-19 -2 -14 6 10 17 3 15 -18 -5z"/>
<path d="M1737 1616 c-3 -8 -16 -12 -31 -11 -15 2 -24 -2 -23 -8 1 -7 -3 -11
-10 -10 -6 2 -15 -6 -18 -17 -4 -11 -10 -18 -15 -15 -5 3 -12 -4 -15 -16 -4
-11 -9 -18 -12 -16 -2 3 -24 -14 -48 -37 -24 -24 -56 -53 -72 -65 -15 -12 -21
-19 -13 -15 13 7 13 6 1 -10 -8 -9 -20 -15 -28 -12 -8 3 -12 2 -9 -2 2 -4 -2
-16 -10 -27 -8 -10 -14 -15 -14 -10 0 5 -11 -5 -23 -23 -13 -17 -27 -29 -30
-25 -4 3 -7 1 -7 -6 0 -7 -5 -9 -12 -5 -7 4 -8 3 -4 -4 7 -12 -33 -59 -47 -54
-4 1 -6 -1 -5 -5 2 -5 -12 -23 -30 -42 -17 -19 -32 -38 -32 -43 0 -5 -4 -6
-10 -3 -5 3 -11 -3 -11 -14 -2 -29 -3 -34 -12 -48 -5 -8 -3 -13 3 -13 7 0 10
-6 7 -13 -9 -23 52 -75 73 -62 4 3 11 -1 13 -7 4 -10 6 -10 6 -1 1 7 7 10 15
7 7 -3 21 2 30 11 9 9 16 14 16 11 0 -4 22 15 50 41 81 78 110 103 121 103 6
0 8 3 6 8 -2 4 15 26 39 49 24 22 44 39 44 36 0 -3 15 13 34 36 18 22 36 38
39 35 3 -3 8 4 12 15 3 12 11 19 16 16 5 -4 9 -2 9 4 0 5 19 29 42 53 23 24
38 37 33 29 -5 -10 -4 -12 3 -7 7 4 12 16 12 26 0 10 8 24 18 29 9 6 13 11 8
11 -5 0 -3 7 4 15 10 12 10 15 -1 15 -11 0 -11 2 1 10 8 5 10 10 3 10 -6 0 -9
8 -6 19 3 12 -3 24 -16 33 -12 8 -19 17 -16 20 3 2 -5 4 -18 3 -12 -1 -29 2
-39 6 -10 6 -18 4 -21 -5z"/>
<path d="M3430 1180 c-6 -4 -24 -6 -40 -5 -16 1 -27 -2 -24 -7 4 -7 -26 -13
-48 -9 -5 0 -8 -3 -8 -8 0 -9 -48 -26 -62 -23 -5 1 -8 -2 -8 -6 0 -5 -7 -9
-15 -10 -8 -1 -22 -3 -30 -4 -8 -1 -15 -5 -15 -10 0 -5 -4 -7 -9 -3 -5 3 -12
1 -16 -5 -4 -6 -11 -8 -16 -5 -5 4 -9 2 -9 -3 0 -6 -7 -13 -16 -16 -8 -3 -12
-2 -9 3 3 5 -8 3 -25 -6 -17 -8 -36 -16 -43 -17 -7 -2 -28 -10 -47 -19 -19 -8
-38 -13 -42 -11 -5 3 -8 1 -8 -5 0 -5 -9 -8 -20 -6 -11 2 -18 0 -15 -4 6 -11
-23 -23 -36 -15 -5 3 -9 1 -9 -4 0 -4 -16 -14 -35 -22 -24 -9 -31 -16 -23 -22
9 -5 7 -8 -6 -8 -11 0 -17 -3 -13 -6 3 -4 0 -19 -9 -35 -11 -22 -12 -29 -2
-29 9 0 8 -3 -2 -10 -10 -6 -11 -10 -2 -10 6 0 12 -6 12 -13 0 -21 33 -47 63
-49 15 -1 27 -5 27 -8 0 -4 14 -5 30 -2 17 2 30 9 30 15 0 6 3 8 6 4 4 -3 36
5 73 19 36 14 71 27 77 28 7 1 19 7 27 14 12 10 16 10 20 0 4 -10 6 -10 6 0 1
6 9 12 19 12 10 0 23 5 29 11 6 6 17 12 24 13 34 7 75 19 84 26 25 17 106 41
116 34 7 -4 9 -3 5 4 -3 6 6 13 23 17 16 3 35 13 41 21 7 7 17 11 24 7 6 -3 8
-3 4 1 -4 5 5 19 19 32 14 13 20 24 14 24 -7 0 -9 5 -4 13 11 18 12 36 3 42
-5 3 -7 12 -4 20 4 9 -4 19 -20 26 -14 7 -26 15 -26 19 0 11 -47 18 -60 10z"/>
</g>
</svg>
